<svg height="749" viewBox="0 0 1044 749" width="1044" xmlns="http://www.w3.org/2000/svg" xmlns:xlink="http://www.w3.org/1999/xlink"><defs/><g transform="translate(-35.00,1.50)"><g id="shape1" transform="translate(35.000000,-1.500000)"><text xml:space="preserve" style="fill:#595959;font-family:Segoe UI;font-size:16.00pt;font-weight:bold"><tspan x="429.3" y="29.5">Class Diagram Key</tspan></text></g><g id="shape2" transform="translate(52.000000,47.000000)"><path fill-rule="nonzero" fill="#ffffff" stroke="#323232" stroke-width="1" d="M.0,.0L114.0,.0L114.0,94.0L.0,94.0L.0,.0z"/><text xml:space="preserve" style="fill:#191919;font-family:Segoe UI;font-size:10.50pt"><tspan x="20.5" y="17.5">&lt;&lt;Enum>></tspan><tspan x="15.8" style="font-weight:bold" y="36.5">accountType</tspan><tspan x="27.3" y="55.5">Customer</tspan><tspan x="26.8" y="74.5">Employee</tspan></text></g><g id="shape3" transform="translate(51.000000,165.000000)"><path fill-rule="nonzero" fill="#ffffff" stroke="#323232" stroke-width="1" d="M.0,.0L114.0,.0L114.0,94.0L.0,94.0L.0,.0z"/><text xml:space="preserve" style="fill:#191919;font-family:Segoe UI;font-size:10.50pt"><tspan x="20.5" y="17.5">&lt;&lt;Enum>></tspan><tspan x="20.0" style="font-weight:bold" y="36.5">loginStatus</tspan><tspan x="36.5" y="55.5">Online</tspan><tspan x="36.0" y="74.5">Offline</tspan></text></g><g id="shape4" transform="translate(397.750000,78.190000)"><path fill-rule="nonzero" fill="#ffffff" d="M.0,.0L178.5,.0L178.5,193.0L.0,193.0L.0,.0zM.0,39.0L178.5,39.0L.0,39.0zM.0,154.0L178.5,154.0L.0,154.0z"/><path fill="none" stroke="#323232" stroke-width="1" d="M.0,.0L178.5,.0L178.5,193.0L.0,193.0L.0,.0zM.0,39.0L178.5,39.0L.0,39.0zM.0,154.0L178.5,154.0L.0,154.0z"/><text xml:space="preserve" style="fill:#191919;font-family:Segoe UI;font-size:10.50pt;font-style:italic"><tspan x="75.8" y="23.5">User</tspan></text><text xml:space="preserve" style="fill:#191919;font-family:Segoe UI;font-size:10.50pt"><tspan x="2.3" y="62.5">-   userId	    : int</tspan><tspan x="2.3" y="81.5">-   username	    : string</tspan><tspan x="2.3" y="100.5">-   password	    : string</tspan><tspan x="2.3" y="119.5">-   accountType : enum</tspan><tspan x="2.3" y="138.5">-   loginStatus   : enum</tspan></text><text xml:space="preserve" style="fill:#191919;font-family:Segoe UI;font-size:10.50pt"><tspan x="2.3" y="177.5">+  verifyLogin()   : bool  </tspan></text></g><g id="shape5" transform="translate(340.000000,212.690000)"><path fill="none" stroke="#646464" stroke-width="2" d="M.0,.0L28.9,.0L28.9,-38.0L50.4,-38.0"/><path stroke-linejoin="round" stroke-linecap="round" fill="none" stroke="#646464" stroke-width="2" d="M57.8,-38.0L50.4,-42.2L50.4,-33.8L57.8,-38.0"/></g><g id="shape6" transform="translate(524.000000,487.000000)"><path fill-rule="nonzero" fill="#ffffff" d="M.0,.0L178.5,.0L178.5,231.0L.0,231.0L.0,.0zM.0,39.0L178.5,39.0L.0,39.0zM.0,154.0L178.5,154.0L.0,154.0z"/><path fill="none" stroke="#323232" stroke-width="1" d="M.0,.0L178.5,.0L178.5,231.0L.0,231.0L.0,.0zM.0,39.0L178.5,39.0L.0,39.0zM.0,154.0L178.5,154.0L.0,154.0z"/><text xml:space="preserve" style="fill:#191919;font-family:Segoe UI;font-size:10.50pt"><tspan x="54.5" y="23.5">Credit Card</tspan></text><text xml:space="preserve" style="fill:#191919;font-family:Segoe UI;font-size:10.50pt"><tspan x="2.3" y="62.5">-   cardId               : int</tspan><tspan x="2.3" y="81.5">-   nameOnCard     : string</tspan><tspan x="2.3" y="100.5">-   cardNumber      : int</tspan><tspan x="2.3" y="119.5">-   expirationDate   : date</tspan><tspan x="2.3" y="138.5">-   securityCode     : int</tspan></text><text xml:space="preserve" style="fill:#191919;font-family:Segoe UI;font-size:10.50pt"><tspan x="2.3" y="177.5">-    removeCard()</tspan><tspan x="2.3" y="196.5">-    addCard()</tspan><tspan x="2.3" y="215.5">-   updateCardInfo()</tspan></text></g><path id="shape7" fill="none" transform="translate(449.000000,38.000000)" stroke="#b4b4b4" stroke-width="4" d="M.0,.0L222.0,.0"/><g id="shape8" transform="translate(446.000000,32.000000)"><text xml:space="preserve" style="fill:#595959;font-family:Segoe UI;font-size:11.00pt"><tspan x="25.3" y="22.5">Eric Wallace | Oct. 15, 2022</tspan></text></g><g id="shape9" transform="translate(190.000000,78.190000)"><path fill-rule="nonzero" fill="#ffffff" d="M.0,.0L150.0,.0L150.0,269.0L.0,269.0L.0,.0zM.0,39.0L150.0,39.0L.0,39.0zM.0,154.0L150.0,154.0L.0,154.0z"/><path fill="none" stroke="#323232" stroke-width="1" d="M.0,.0L150.0,.0L150.0,269.0L.0,269.0L.0,.0zM.0,39.0L150.0,39.0L.0,39.0zM.0,154.0L150.0,154.0L.0,154.0z"/><text xml:space="preserve" style="fill:#191919;font-family:Segoe UI;font-size:10.50pt"><tspan x="44.8" y="23.5">Employee</tspan></text><text xml:space="preserve" style="fill:#191919;font-family:Segoe UI;font-size:10.50pt"><tspan x="2.0" y="62.5">-   empId	    : int</tspan><tspan x="2.0" y="81.5">-   firstName	    : string</tspan><tspan x="2.0" y="100.5">-   lastName	    : string</tspan><tspan x="2.0" y="119.5">-   email	    : string</tspan><tspan x="2.0" y="138.5">-   role	    : enum</tspan></text><text xml:space="preserve" style="fill:#191919;font-family:Segoe UI;font-size:10.50pt"><tspan x="2.0" y="177.5">+   login()</tspan><tspan x="2.0" y="196.5">+   updateProfile()</tspan><tspan x="2.0" y="215.5">+   addPackage()</tspan><tspan x="2.0" y="234.5">+   updatePackage()</tspan><tspan x="2.0" y="253.5">+   deletePackage()</tspan></text></g><g id="shape10" transform="translate(51.000000,288.000000)"><path fill-rule="nonzero" fill="#ffffff" stroke="#323232" stroke-width="1" d="M.0,.0L114.0,.0L114.0,130.0L.0,130.0L.0,.0z"/><text xml:space="preserve" style="fill:#191919;font-family:Segoe UI;font-size:10.50pt"><tspan x="20.5" y="17.5">&lt;&lt;Enum>></tspan><tspan x="44.3" style="font-weight:bold" y="36.5">role</tspan><tspan x="31.0" y="55.5">member</tspan><tspan x="37.8" y="74.5">admin</tspan><tspan x="51.5" y="93.5">IT</tspan><tspan x="36.8" y="112.5">trainer</tspan></text></g><g id="shape11" transform="translate(884.500000,458.500000)"><path fill-rule="nonzero" fill="#ffffff" d="M.0,.0L178.5,.0L178.5,288.0L.0,288.0L.0,.0zM.0,39.0L178.5,39.0L.0,39.0zM.0,211.0L178.5,211.0L.0,211.0z"/><path fill="none" stroke="#323232" stroke-width="1" d="M.0,.0L178.5,.0L178.5,288.0L.0,288.0L.0,.0zM.0,39.0L178.5,39.0L.0,39.0zM.0,211.0L178.5,211.0L.0,211.0z"/><text xml:space="preserve" style="fill:#191919;font-family:Segoe UI;font-size:10.50pt"><tspan x="48.8" y="23.5">Appointment</tspan></text><text xml:space="preserve" style="fill:#191919;font-family:Segoe UI;font-size:10.50pt"><tspan x="2.3" y="62.5">-   apptId	    : int</tspan><tspan x="2.3" y="81.5">-   userId	    : int</tspan><tspan x="2.3" y="100.5">-   trainerid	    : int</tspan><tspan x="2.3" y="119.5">-   startDate	    : date</tspan><tspan x="2.3" y="138.5">-   endDate	    : date</tspan><tspan x="2.3" y="157.5">-   startTime	    : time</tspan><tspan x="2.3" y="176.5">-   endTime	    : time</tspan><tspan x="2.3" y="195.5">-   comment	    : string</tspan></text><text xml:space="preserve" style="fill:#191919;font-family:Segoe UI;font-size:10.50pt"><tspan x="2.3" y="234.5">+   addAppointment()</tspan><tspan x="2.3" y="253.5">+   updateAppointment()</tspan><tspan x="2.3" y="272.5">+   deleteAppointment()</tspan></text></g><g id="shape12" transform="translate(884.500000,509.764000)"><path fill="none" stroke="#646464" stroke-width="2" d="M.0,.0L.0,.2L-95.9,.2L-95.9,-92.3"/><path stroke-linecap="round" fill="#646464" stroke="#646464" stroke-width="1" d="M-95.9,-105.6L-99.7,-99.0L-95.9,-92.3L-92.1,-99.0L-95.9,-105.6"/><rect x="-87.4" height="18.5" width="8.0" fill="#ffffff" y="-109.0"/><text xml:space="preserve" style="fill:#191919;font-family:Times New Roman;font-size:12.00pt"><tspan x="-87.4" y="-94.5">1</tspan></text><rect x="-26.4" height="18.5" width="24.0" fill="#ffffff" y="-28.3"/><text xml:space="preserve" style="fill:#191919;font-family:Times New Roman;font-size:12.00pt"><tspan x="-26.4" y="-13.8">0..1</tspan></text></g><g id="shape13" transform="translate(878.000000,78.190000)"><path fill-rule="nonzero" fill="#ffffff" d="M.0,.0L185.0,.0L185.0,307.0L.0,307.0L.0,.0zM.0,39.0L185.0,39.0L.0,39.0zM.0,230.0L185.0,230.0L.0,230.0z"/><path fill="none" stroke="#323232" stroke-width="1" d="M.0,.0L185.0,.0L185.0,307.0L.0,307.0L.0,.0zM.0,39.0L185.0,39.0L.0,39.0zM.0,230.0L185.0,230.0L.0,230.0z"/><text xml:space="preserve" style="fill:#191919;font-family:Segoe UI;font-size:10.50pt"><tspan x="68.5" y="23.5">Lessons</tspan></text><text xml:space="preserve" style="fill:#191919;font-family:Segoe UI;font-size:10.50pt"><tspan x="2.0" y="62.5">-   lessonId	      : int</tspan><tspan x="2.0" y="81.5">-   userId	      : int</tspan><tspan x="2.0" y="100.5">-   startTime	      : time</tspan><tspan x="2.0" y="119.5">-   endTime	      : time</tspan><tspan x="2.0" y="138.5">-   lessonType   : string</tspan><tspan x="2.0" y="157.5">-   lessonName  : string</tspan><tspan x="2.0" y="176.5">-   progress	      : int</tspan><tspan x="2.0" y="195.5">-   score	      : int</tspan><tspan x="2.0" y="214.5">-   comments     : string</tspan></text><text xml:space="preserve" style="fill:#191919;font-family:Segoe UI;font-size:10.50pt"><tspan x="2.0" y="253.5">-   updateProgress()</tspan><tspan x="2.0" y="272.5">-   updateComments()</tspan></text></g><g id="shape14" transform="translate(643.500000,78.190000)"><path fill-rule="nonzero" fill="#ffffff" d="M.0,.0L178.5,.0L178.5,326.0L.0,326.0L.0,.0zM.0,39.0L178.5,39.0L.0,39.0zM.0,268.0L178.5,268.0L.0,268.0z"/><path fill="none" stroke="#323232" stroke-width="1" d="M.0,.0L178.5,.0L178.5,326.0L.0,326.0L.0,.0zM.0,39.0L178.5,39.0L.0,39.0zM.0,268.0L178.5,268.0L.0,268.0z"/><text xml:space="preserve" style="fill:#191919;font-family:Segoe UI;font-size:10.50pt"><tspan x="59.5" y="23.5">Customer</tspan></text><text xml:space="preserve" style="fill:#191919;font-family:Segoe UI;font-size:10.50pt"><tspan x="2.3" y="62.5">-   custId	    : int</tspan><tspan x="2.3" y="81.5">-   firstName	    : string</tspan><tspan x="2.3" y="100.5">-   lastName	    : string</tspan><tspan x="2.3" y="119.5">-   email	    : string</tspan><tspan x="2.3" y="138.5">-   address	    : string</tspan><tspan x="2.3" y="157.5">-   phone	    : int</tspan><tspan x="2.3" y="176.5">-   city	    : string</tspan><tspan x="2.3" y="195.5">-   state	    : string</tspan><tspan x="2.3" y="214.5">-   zipcode	    : int</tspan><tspan x="2.3" y="233.5">-   cardId	    : int</tspan><tspan x="2.3" y="252.5">-   package       : int</tspan></text><text xml:space="preserve" style="fill:#191919;font-family:Segoe UI;font-size:10.50pt"><tspan x="2.3" y="291.5">+   login()</tspan><tspan x="2.3" y="310.5">+   updateProfile()</tspan></text></g><g id="shape15" transform="translate(822.000000,231.690000)"><path fill="none" stroke="#646464" stroke-width="2" d="M13.2,.0L28.0,.0L28.0,-12.0L57.0,-12.0"/><path stroke-linecap="round" fill="#646464" stroke="#646464" stroke-width="1" d="M.0,.0L6.6,3.8L13.2,.0L6.6,-3.8L.0,.0"/><rect x="8.8" height="18.5" width="8.0" fill="#ffffff" y="4.5"/><text xml:space="preserve" style="fill:#191919;font-family:Times New Roman;font-size:12.00pt"><tspan x="8.8" y="19.0">0</tspan></text><rect x="25.5" height="18.5" width="23.5" fill="#ffffff" y="-40.5"/><text xml:space="preserve" style="fill:#191919;font-family:Times New Roman;font-size:12.00pt"><tspan x="25.5" y="-26.0">0..*</tspan></text></g><g id="shape16" transform="translate(643.500000,179.706400)"><path fill="none" stroke="#646464" stroke-width="2" d="M.0,.0L-58.8,.0"/><path stroke-linejoin="round" stroke-linecap="round" fill="none" stroke="#646464" stroke-width="2" d="M-67.3,.0L-58.8,4.2L-58.8,-4.2L-67.3,.0"/></g><g id="shape17" transform="translate(702.500000,509.638000)"><path fill="none" stroke="#646464" stroke-width="2" d="M.0,.0L30.0,.0L30.0,-91.8"/><path stroke-linecap="round" fill="#646464" stroke="#646464" stroke-width="1" d="M30.0,-105.0L26.2,-98.4L30.0,-91.8L33.8,-98.4L30.0,-105.0"/><rect x="15.5" height="18.5" width="8.0" fill="#ffffff" y="-106.0"/><text xml:space="preserve" style="fill:#191919;font-family:Times New Roman;font-size:12.00pt"><tspan x="15.5" y="-91.5">1</tspan></text><rect x="13.0" height="18.5" width="8.0" fill="#ffffff" y="-28.5"/><text xml:space="preserve" style="fill:#191919;font-family:Times New Roman;font-size:12.00pt"><tspan x="13.0" y="-14.0">1</tspan></text></g><g id="shape18" transform="translate(306.000000,487.000000)"><path fill-rule="nonzero" fill="#ffffff" d="M.0,.0L185.0,.0L185.0,200.0L.0,200.0L.0,.0zM.0,40.0L185.0,40.0L.0,40.0zM.0,140.0L185.0,140.0L.0,140.0z"/><path fill="none" stroke="#323232" stroke-width="1" d="M.0,.0L185.0,.0L185.0,200.0L.0,200.0L.0,.0zM.0,40.0L185.0,40.0L.0,40.0zM.0,140.0L185.0,140.0L.0,140.0z"/><text xml:space="preserve" style="fill:#191919;font-family:Times New Roman;font-size:12.00pt"><tspan x="66.3" y="22.5">Package</tspan></text><text xml:space="preserve" style="fill:#191919;font-family:Times New Roman;font-size:12.00pt"><tspan x="2.0" y="62.5">-   packageId          : int</tspan><tspan x="2.0" y="81.0">-   packageName    : string</tspan><tspan x="2.0" y="99.5">-   packageDetails   : string</tspan><tspan x="2.0" y="118.0">-   packagePrice      : int</tspan></text><text xml:space="preserve" style="fill:#191919;font-family:Times New Roman;font-size:12.00pt"><tspan x="2.0" y="162.5">+  getPackage()   : package</tspan><tspan x="2.0" y="181.0">+  assignPackage() </tspan></text></g><g id="shape19" transform="translate(447.155000,487.000000)"><path fill="none" stroke="#646464" stroke-width="2" d="M.0,.0L.0,-29.0L223.3,-29.0L223.3,-69.6"/><path stroke-linecap="round" fill="#646464" stroke="#646464" stroke-width="1" d="M223.3,-82.8L219.5,-76.2L223.3,-69.6L227.1,-76.2L223.3,-82.8"/><rect x="208.8" height="18.5" width="8.0" fill="#ffffff" y="-83.6"/><text xml:space="preserve" style="fill:#191919;font-family:Times New Roman;font-size:12.00pt"><tspan x="208.8" y="-69.1">1</tspan></text><rect x="-14.5" height="18.5" width="8.0" fill="#ffffff" y="-22.7"/><text xml:space="preserve" style="fill:#191919;font-family:Times New Roman;font-size:12.00pt"><tspan x="-14.5" y="-8.2">0</tspan></text></g><g id="shape20" transform="translate(66.500000,487.000000)"><path fill-rule="nonzero" fill="#ffffff" d="M.0,.0L169.0,.0L169.0,191.0L.0,191.0L.0,.0zM.0,39.0L169.0,39.0L.0,39.0zM.0,154.0L169.0,154.0L.0,154.0z"/><path fill="none" stroke="#323232" stroke-width="1" d="M.0,.0L169.0,.0L169.0,191.0L.0,191.0L.0,.0zM.0,39.0L169.0,39.0L.0,39.0zM.0,154.0L169.0,154.0L.0,154.0z"/><text xml:space="preserve" style="fill:#191919;font-family:Segoe UI;font-size:10.50pt"><tspan x="59.8" y="23.5">Training</tspan></text><text xml:space="preserve" style="fill:#191919;font-family:Segoe UI;font-size:10.50pt"><tspan x="2.0" y="62.5">-   trainingId	       : int</tspan><tspan x="2.0" y="81.5">-   trainingType    : string</tspan><tspan x="2.0" y="100.5">-   trainingName  : string</tspan><tspan x="2.0" y="119.5">-   active	       : bool</tspan><tspan x="2.0" y="138.5">-   updateDate    : date</tspan></text></g></g></svg>